<?xml version="1.0" standalone="no"?>
<!DOCTYPE svg PUBLIC "-//W3C//DTD SVG 20010904//EN"
 "http://www.w3.org/TR/2001/REC-SVG-20010904/DTD/svg10.dtd">
<svg version="1.0" xmlns="http://www.w3.org/2000/svg"
 width="700.000000pt" height="700.000000pt" viewBox="0 0 700.000000 700.000000"
 preserveAspectRatio="xMidYMid meet">
<metadata>
Created by potrace 1.11, written by Peter Selinger 2001-2013
</metadata>
<g transform="translate(0.000000,700.000000) scale(0.100000,-0.100000)"
fill="#000000" stroke="none">
<path d="M2797 6434 c-1 -1 -42 -5 -92 -8 -92 -6 -144 -12 -205 -22 -66 -11
-75 -12 -115 -18 -117 -17 -514 -132 -540 -157 -5 -5 -15 -9 -23 -9 -15 0
-294 -132 -332 -158 -14 -9 -27 -17 -30 -17 -5 -1 -70 -41 -135 -83 -658 -434
-1106 -1085 -1269 -1842 -14 -63 -28 -137 -32 -165 -3 -27 -10 -72 -14 -100
-9 -52 -7 -681 2 -725 3 -14 11 -61 18 -105 53 -349 201 -745 394 -1053 39
-63 76 -121 81 -130 16 -27 95 -132 145 -192 86 -105 106 -126 213 -233 431
-427 1005 -715 1617 -812 19 -3 46 -7 60 -10 109 -20 529 -28 678 -13 290 30
596 108 867 223 120 51 327 158 327 169 0 5 -71 83 -158 174 -88 91 -203 210
-256 266 l-96 100 -119 -51 c-397 -170 -700 -214 -1028 -148 -16 3 -59 17 -94
31 -214 84 -351 250 -394 474 -40 214 23 435 172 602 75 85 231 175 333 194
96 17 132 20 199 18 133 -5 253 -47 358 -126 31 -23 290 -274 576 -559 636
-633 875 -867 980 -959 214 -187 432 -318 625 -374 128 -36 141 -38 325 -41
133 -3 192 1 270 15 210 39 365 102 530 214 67 46 85 61 176 141 64 57 116
137 159 245 31 78 41 329 15 415 -85 293 -358 456 -691 410 -234 -31 -404
-222 -438 -490 -13 -95 -13 -140 -1 -199 l12 -58 -71 6 c-110 9 -199 41 -310
113 -71 45 -216 183 -251 236 l-18 27 45 58 c24 31 51 68 61 82 9 14 29 43 45
66 43 59 152 246 199 339 125 248 251 655 277 900 3 28 8 68 12 90 13 94 19
420 9 525 -16 179 -17 189 -41 320 -115 638 -445 1226 -930 1660 -239 214
-521 392 -819 515 -92 38 -236 90 -290 105 -179 48 -239 62 -341 80 -197 33
-297 42 -497 44 -81 1 -149 1 -150 0z m363 -709 c86 -9 216 -33 323 -61 531
-137 1004 -473 1315 -935 56 -82 171 -298 197 -369 9 -25 21 -54 26 -65 41
-94 96 -298 120 -450 29 -181 31 -510 4 -654 -1 -9 -6 -36 -10 -61 -12 -79
-63 -272 -95 -365 -68 -191 -163 -372 -282 -533 l-69 -94 -86 89 c-351 365
-720 735 -779 784 -265 217 -559 325 -874 321 -388 -4 -696 -120 -949 -358
-239 -225 -375 -471 -436 -794 -12 -60 -18 -175 -17 -288 2 -141 8 -135 -87
-79 -235 138 -515 589 -655 1052 -53 174 -64 220 -90 370 -32 183 -25 442 18
671 64 348 230 706 459 994 81 101 269 285 370 362 89 68 176 128 185 128 3 0
13 6 21 14 24 21 218 122 302 157 90 37 293 105 334 112 17 3 48 10 70 16 57
15 166 31 260 38 44 3 82 7 84 9 5 4 274 -4 341 -11z"/>
</g>
</svg>
